<?xml version="1.0" standalone="no"?>
<!DOCTYPE svg PUBLIC "-//W3C//DTD SVG 20010904//EN"
 "http://www.w3.org/TR/2001/REC-SVG-20010904/DTD/svg10.dtd">
<svg version="1.0" xmlns="http://www.w3.org/2000/svg"
 width="1024.000000pt" height="1024.000000pt" viewBox="0 0 1024.000000 1024.000000"
 preserveAspectRatio="xMidYMid meet">

<g transform="translate(0.000000,1024.000000) scale(0.100000,-0.100000)"
fill="#000000" stroke="none">
<path d="M4810 9050 c-272 -169 -469 -289 -1299 -790 l-225 -135 0 -628 c-1
-531 1 -626 13 -622 13 5 193 106 471 263 178 101 184 107 252 251 127 270
254 361 673 485 243 72 539 190 653 261 l42 26 0 -145 0 -146 -66 -48 c-178
-126 -237 -174 -330 -267 -177 -175 -215 -252 -222 -451 -2 -78 0 -153 7 -184
30 -141 128 -267 290 -374 53 -35 233 -141 401 -236 168 -95 439 -249 603
-343 l298 -171 32 17 c18 10 149 89 292 177 l260 159 3 999 2 1000 -172 106
c-95 58 -324 195 -508 305 l-335 199 -3 -935 -2 -934 -135 -175 c-75 -96 -140
-174 -146 -174 -19 0 -424 239 -481 284 -31 25 -69 67 -85 93 -26 45 -28 55
-28 158 0 97 3 116 25 159 39 80 139 176 288 278 171 117 242 182 273 250 l24
53 3 547 3 547 -38 25 c-53 34 -520 306 -524 305 -2 0 -141 -85 -309 -189z
m451 -227 l129 -78 -2 -129 -3 -130 -90 -53 c-49 -30 -133 -75 -185 -101 -85
-42 -102 -47 -160 -46 -90 1 -151 27 -319 137 l-141 93 173 106 c287 178 452
277 461 278 5 0 66 -35 137 -77z m-918 -542 c62 -43 136 -94 166 -112 l53 -32
-108 -37 c-297 -100 -438 -190 -565 -362 -31 -42 -75 -114 -97 -160 -51 -103
-84 -143 -161 -196 l-61 -42 0 313 0 312 203 123 c111 68 256 156 322 196 66
41 124 74 128 75 4 1 58 -35 120 -78z m2114 -163 l223 -132 0 -332 0 -332
-217 -123 c-119 -68 -220 -125 -225 -127 -4 -2 -9 262 -10 587 -2 325 -1 591
1 591 3 0 105 -59 228 -132z m221 -1465 l-3 -336 -135 -83 c-74 -46 -144 -88
-155 -94 -18 -10 -49 5 -220 103 -227 129 -245 140 -245 147 0 3 53 72 118
154 l117 148 255 148 c140 81 258 148 263 149 4 1 6 -150 5 -336z"/>
<path d="M4550 7542 c-271 -152 -288 -181 -297 -517 l-6 -210 -89 43 c-49 24
-118 50 -152 59 -61 15 -64 14 -106 -7 -55 -28 -394 -219 -518 -292 l-93 -55
0 -219 0 -219 58 -39 c31 -22 172 -109 313 -194 140 -85 296 -181 345 -212 50
-31 243 -152 430 -267 187 -116 416 -258 508 -316 l168 -105 148 91 c81 51
310 191 509 312 199 121 361 222 362 226 0 3 -20 15 -45 27 -25 12 -136 74
-246 138 -111 64 -220 125 -243 135 -68 30 -153 48 -271 59 -188 18 -269 48
-450 167 -124 82 -215 175 -260 266 -61 124 -68 186 -69 577 -1 379 2 406 64
534 16 33 28 62 27 63 -2 1 -41 -19 -87 -45z m-431 -987 l131 -64 0 -317 0
-316 -26 17 c-14 9 -76 47 -137 84 -204 124 -462 283 -490 303 -26 19 -28 24
-25 81 l3 60 195 109 c107 59 200 108 206 108 6 0 71 -29 143 -65z m479 -552
c87 -71 227 -160 327 -208 140 -67 243 -95 376 -104 98 -7 124 -13 165 -35 57
-31 89 -54 83 -59 -16 -13 -417 -257 -429 -262 -14 -5 -246 132 -502 298 l-88
57 0 180 c0 99 2 180 5 180 3 0 31 -21 63 -47z"/>
<path d="M6215 4665 c-38 -9 -113 -36 -165 -62 -188 -92 -329 -278 -366 -483
-93 -518 406 -930 920 -759 262 87 425 320 426 607 l0 82 -320 0 -320 0 0
-105 0 -106 175 3 c199 3 193 7 149 -80 -32 -65 -99 -124 -173 -154 -46 -19
-75 -23 -166 -23 -103 0 -114 2 -175 31 -155 75 -240 211 -240 384 0 171 87
312 238 383 64 30 73 32 182 31 97 0 123 -4 164 -22 69 -31 141 -87 180 -137
l32 -43 102 85 102 85 -31 39 c-76 96 -207 185 -334 225 -102 33 -274 41 -380
19z"/>
<path d="M2340 4183 c0 -252 -5 -475 -9 -497 -17 -72 -85 -116 -177 -116 -93
0 -156 43 -170 115 l-6 35 -139 0 -139 0 0 -27 c0 -82 50 -191 117 -255 79
-76 182 -110 333 -111 254 -1 411 109 456 322 10 51 14 170 14 529 l0 462
-140 0 -140 0 0 -457z"/>
<path d="M3140 4283 c-84 -197 -206 -483 -271 -636 -66 -154 -119 -283 -119
-288 0 -5 64 -9 143 -9 l143 0 55 138 55 137 279 3 280 2 54 -140 54 -140 149
0 c130 0 149 2 144 15 -9 25 -371 874 -460 1080 l-82 190 -136 3 -136 3 -152
-358z m377 -170 c47 -120 89 -228 94 -240 l9 -23 -194 0 -193 0 94 235 c51
130 93 241 93 247 0 26 17 -13 97 -219z"/>
<path d="M4280 3995 l0 -645 140 0 140 0 2 400 3 400 319 -400 318 -400 124 0
124 0 0 645 0 645 -135 0 -135 0 -2 -417 -3 -418 -329 418 -330 417 -118 0
-118 0 0 -645z"/>
<path d="M7580 4518 c-171 -401 -478 -1126 -484 -1146 l-8 -23 142 3 142 3 55
138 55 137 277 0 277 0 55 -137 54 -138 148 -3 c104 -2 147 1 147 9 0 9 -289
694 -508 1204 l-30 70 -135 3 -134 3 -53 -123z m285 -437 c47 -122 85 -224 85
-227 0 -2 -85 -4 -189 -4 l-189 0 96 240 c62 155 99 235 104 227 4 -8 46 -114
93 -236z"/>
<path d="M2435 2914 c-95 -23 -146 -63 -181 -139 -42 -88 -25 -205 39 -273 62
-67 207 -93 290 -53 24 12 54 33 67 46 l24 26 -27 26 c-24 25 -28 26 -44 11
-81 -71 -205 -61 -260 21 -30 45 -32 132 -3 179 33 54 75 74 147 70 52 -3 69
-9 101 -35 l40 -32 21 23 c27 29 27 37 -6 69 -47 44 -151 74 -208 61z"/>
<path d="M3067 2909 c-122 -19 -206 -130 -194 -259 8 -91 48 -154 122 -193 53
-29 183 -31 236 -4 90 45 134 118 133 223 0 58 -4 78 -27 117 -54 92 -151 133
-270 116z m137 -98 c71 -40 97 -140 57 -219 -50 -99 -208 -110 -274 -21 -26
36 -37 103 -25 148 27 100 147 146 242 92z"/>
<path d="M4330 2909 c-83 -25 -124 -114 -86 -188 19 -36 45 -52 136 -85 111
-40 131 -65 88 -106 -32 -30 -124 -24 -170 10 l-31 23 -24 -29 -24 -29 33 -28
c79 -66 223 -63 287 6 31 34 39 103 17 145 -21 41 -45 56 -136 87 -70 24 -110
48 -110 67 0 4 9 17 20 28 26 26 90 26 146 1 l41 -19 16 33 c14 30 14 34 -1
48 -38 34 -143 53 -202 36z"/>
<path d="M7680 2905 c-127 -40 -196 -174 -159 -310 14 -53 99 -136 155 -153
81 -24 188 -8 236 35 34 30 55 84 60 150 l5 62 -103 3 -104 3 0 -37 0 -38 60
0 c65 0 69 -4 45 -50 -42 -80 -187 -79 -248 2 -47 63 -39 158 17 214 31 31
100 58 127 50 8 -2 26 -7 41 -10 14 -3 40 -17 56 -31 l29 -24 29 30 29 31 -33
28 c-34 28 -128 61 -173 59 -13 0 -44 -7 -69 -14z"/>
<path d="M3580 2670 l0 -230 45 0 45 0 0 160 0 161 128 -160 c123 -156 128
-161 165 -161 l37 0 0 230 0 230 -45 0 -44 0 -3 -155 -3 -156 -124 156 c-122
151 -126 155 -163 155 l-38 0 0 -230z"/>
<path d="M4802 2722 c3 -178 3 -179 31 -215 35 -46 75 -67 141 -74 64 -7 126
10 167 44 52 44 59 74 59 258 l0 165 -40 0 -40 0 0 -160 0 -160 -28 -31 c-24
-27 -37 -33 -84 -37 -50 -4 -58 -2 -89 26 l-34 30 -3 166 -3 166 -40 0 -40 0
3 -178z"/>
<path d="M5460 2670 l0 -230 155 0 155 0 -3 35 -2 35 -112 0 -113 0 0 195 0
195 -40 0 -40 0 0 -230z"/>
<path d="M5892 2864 l3 -36 78 -2 79 -2 -2 -192 -1 -192 46 0 45 0 0 196 0
195 78 -2 77 -2 3 36 3 37 -206 0 -206 0 3 -36z"/>
<path d="M6520 2670 l0 -230 40 0 40 0 0 230 0 230 -40 0 -40 0 0 -230z"/>
<path d="M6870 2671 l0 -231 45 0 44 0 -3 161 c-2 88 0 157 4 152 4 -4 47 -57
96 -118 158 -198 155 -195 191 -195 l33 0 0 230 0 230 -40 0 -40 0 -2 -158 -3
-159 -125 156 c-118 146 -128 156 -163 159 l-37 3 0 -230z"/>
<path d="M8380 1798 c-11 -18 -20 -37 -20 -41 0 -17 46 6 80 39 l35 34 -38 0
c-31 0 -40 -5 -57 -32z"/>
<path d="M5705 1730 c-17 -19 -17 -21 0 -40 15 -16 16 -22 5 -35 -22 -26 4
-43 30 -20 25 23 29 100 4 109 -21 8 -18 9 -39 -14z"/>
<path d="M1680 1575 l0 -165 30 0 30 0 0 165 0 165 -30 0 -30 0 0 -165z"/>
<path d="M1830 1575 l0 -165 25 0 c24 0 24 0 27 113 l3 112 85 -112 c64 -86
90 -113 107 -113 23 0 23 0 23 165 l0 165 -25 0 c-24 0 -24 -1 -27 -107 l-3
-108 -83 108 c-65 85 -88 107 -107 107 l-25 0 0 -165z"/>
<path d="M2190 1575 l0 -165 25 0 c24 0 24 0 27 112 l3 112 84 -112 c65 -88
88 -112 107 -112 l24 0 0 165 0 165 -25 0 c-24 0 -24 -1 -27 -109 l-3 -109
-84 109 c-65 84 -90 109 -108 109 l-23 0 0 -165z"/>
<path d="M2599 1720 c-79 -42 -102 -170 -45 -245 76 -100 227 -78 271 40 56
146 -89 278 -226 205z m154 -70 c73 -81 -14 -211 -114 -170 -58 24 -78 113
-38 164 43 54 105 57 152 6z"/>
<path d="M2860 1733 c0 -5 28 -79 62 -166 59 -149 64 -158 88 -155 22 3 32 20
87 158 34 85 62 158 62 163 1 4 -12 7 -28 7 -27 0 -31 -5 -61 -82 -17 -46 -37
-100 -43 -120 -11 -36 -27 -51 -27 -26 0 6 -19 60 -42 120 -39 102 -43 108
-70 108 -15 0 -28 -3 -28 -7z"/>
<path d="M3210 1575 l0 -166 113 3 112 3 3 27 3 27 -88 3 -88 3 0 35 0 35 75
5 c68 5 75 7 78 28 3 21 1 22 -77 22 l-81 0 0 40 0 40 85 0 85 0 0 30 0 30
-110 0 -110 0 0 -165z"/>
<path d="M3510 1574 l0 -165 28 3 c25 3 27 7 30 56 3 50 4 52 32 52 25 0 36
-9 66 -55 30 -45 42 -55 65 -55 16 0 29 2 29 5 0 3 -15 29 -34 57 l-35 51 35
32 c29 27 34 39 34 77 0 80 -45 108 -171 108 l-79 0 0 -166z m182 89 c41 -42
0 -83 -83 -83 l-39 0 0 56 0 57 51 -5 c33 -3 58 -12 71 -25z"/>
<path d="M3970 1575 l0 -165 30 0 30 0 0 60 0 60 60 0 c32 0 71 5 85 12 50 23
71 101 39 146 -27 39 -67 52 -159 52 l-85 0 0 -165z m187 93 c16 -13 17 -50 1
-66 -7 -7 -38 -12 -70 -12 l-58 0 0 51 0 52 57 -7 c31 -4 63 -12 70 -18z"/>
<path d="M4365 1726 c-66 -28 -105 -106 -91 -178 21 -110 119 -164 219 -120
68 30 89 69 85 159 -3 60 -7 76 -28 99 -48 51 -123 67 -185 40z m105 -51 c33
-17 60 -61 60 -98 0 -37 -41 -90 -77 -101 -91 -26 -162 92 -102 168 36 45 73
55 119 31z"/>
<path d="M4660 1616 c0 -119 1 -126 25 -155 47 -55 133 -64 189 -20 47 37 56
68 56 189 l0 110 -30 0 -30 0 0 -114 c0 -112 -1 -115 -26 -135 -36 -28 -79
-27 -109 4 -24 23 -25 31 -25 135 l0 110 -25 0 -25 0 0 -124z"/>
<path d="M5010 1575 l0 -165 30 0 c30 0 30 1 30 55 l0 55 33 0 c29 0 38 -7 72
-55 31 -45 43 -55 66 -55 16 0 29 4 29 9 0 4 -16 29 -36 56 l-36 47 30 28 c38
35 50 86 28 127 -23 45 -70 63 -165 63 l-81 0 0 -165z m186 94 c17 -14 18 -53
2 -67 -7 -5 -39 -13 -70 -17 l-58 -7 0 57 0 58 56 -6 c30 -3 62 -11 70 -18z"/>
<path d="M5475 1718 c-3 -13 -4 -86 -3 -163 l3 -140 94 -3 c98 -3 111 2 111
41 0 15 -10 17 -75 17 l-76 0 2 133 1 132 -25 3 c-20 3 -28 -2 -32 -20z"/>
<path d="M5845 1578 l0 -163 27 -3 c27 -3 27 -3 30 70 l3 73 54 3 c97 6 101 2
101 -78 0 -68 1 -70 25 -70 l25 0 0 165 0 165 -25 0 c-24 0 -25 -3 -25 -60 l0
-60 -80 0 -80 0 0 60 c0 59 0 60 -28 60 l-28 0 1 -162z"/>
<path d="M6200 1616 c0 -119 1 -126 25 -155 66 -77 192 -58 231 35 9 21 14 72
14 139 l0 105 -30 0 -30 0 0 -114 c0 -112 -1 -115 -26 -135 -36 -28 -79 -27
-109 4 -24 23 -25 31 -25 135 l0 110 -25 0 -25 0 0 -124z"/>
<path d="M6560 1574 l0 -165 28 3 27 3 -4 118 c-2 64 -1 117 2 117 2 0 24 -40
48 -90 57 -120 71 -121 125 -7 l39 82 3 -112 3 -113 29 0 30 0 0 165 0 165
-35 0 c-34 0 -36 -2 -83 -95 l-47 -95 -48 95 c-46 93 -48 95 -82 95 l-35 0 0
-166z"/>
<path d="M7095 1731 c-15 -25 -125 -295 -125 -307 0 -8 11 -14 25 -14 20 0 28
8 41 40 l16 40 77 0 78 0 13 -40 c11 -34 17 -40 42 -40 15 0 28 3 28 8 0 4
-28 77 -63 162 -61 151 -63 155 -94 158 -17 2 -34 -2 -38 -7z m63 -120 c12
-29 22 -58 22 -62 0 -5 -24 -9 -54 -9 l-54 0 27 69 c14 39 29 67 32 63 3 -4
15 -31 27 -61z"/>
<path d="M7377 1733 c-4 -3 -7 -78 -7 -165 l0 -158 25 0 25 0 0 115 c0 63 3
115 8 115 4 -1 32 -33 62 -72 95 -122 131 -159 152 -156 18 3 20 13 21 163 l2
160 -27 3 -27 3 -3 -111 -3 -111 -90 110 c-85 104 -116 127 -138 104z"/>
<path d="M7780 1575 l0 -165 30 0 30 0 0 165 0 165 -30 0 -30 0 0 -165z"/>
<path d="M7928 1735 c-3 -4 -4 -15 -1 -26 4 -15 14 -19 54 -19 l49 0 0 -140 0
-140 25 0 25 0 0 139 0 140 53 3 c44 3 52 6 52 23 0 19 -8 20 -126 23 -69 1
-128 0 -131 -3z"/>
<path d="M8280 1575 l0 -166 113 3 112 3 3 28 3 27 -85 0 -86 0 0 40 0 39 73
3 c66 3 72 5 75 26 3 21 0 22 -72 22 l-76 0 0 45 0 45 80 0 c79 0 80 0 80 25
l0 25 -110 0 -110 0 0 -165z"/>
</g>
</svg>
