<svg width="32" height="32" viewBox="0 0 32 32" fill="none" xmlns="http://www.w3.org/2000/svg">
  <rect width="32" height="32" rx="8" fill="currentColor"/>
  <path d="M12.5 10C13.3284 10 14 10.6716 14 11.5V16C14 17.933 12.433 19.5 10.5 19.5C10.2239 19.5 10 19.2761 10 19C10 18.7239 10.2239 18.5 10.5 18.5C11.8807 18.5 13 17.3807 13 16V11.5C13 11.2239 12.7761 11 12.5 11C12.2239 11 12 10.7761 12 10.5C12 10.2239 12.2239 10 12.5 10Z" fill="white"/>
  <path d="M19 16C19 19.3137 21.6863 22 25 22C25.2761 22 25.5 21.7761 25.5 21.5C25.5 21.2239 25.2761 21 25 21C22.2386 21 20 18.7614 20 16C20 13.2386 22.2386 11 25 11C25.2761 11 25.5 10.7761 25.5 10.5C25.5 10.2239 25.2761 10 25 10C21.6863 10 19 12.6863 19 16Z" fill="white"/>
</svg>
